<svg id="Layer_1" data-name="Layer 1" xmlns="http://www.w3.org/2000/svg" viewBox="0 0 665.65 667.83"><defs><style>.cls-1{fill:#171717;}</style></defs><title>edit</title><path class="cls-1" d="M184.15,734.53c-5.46-1.19-11-2.22-16.37-3.59-60.89-15.39-100.7-65.7-100.84-128.5q-.37-170.84,0-341.68c.13-63.5,40.84-114.52,102.67-128.91a140.26,140.26,0,0,1,31-3.26q122.26-.37,244.52-.12c20.61,0,33.73,12.78,32.47,31.31a28.17,28.17,0,0,1-25.09,25.78c-3.24.29-6.51.31-9.76.31q-121,0-241.92,0c-34.39,0-62.14,18.69-72.28,49.33a85.53,85.53,0,0,0-4.13,26.2q-.41,170.19-.14,340.38c0,43.57,31.82,75.26,75.39,75.29q171.48.1,343,0c44,0,75.63-31.66,75.68-75.64q.12-119-.05-238c0-11.25,3.43-20.52,12.91-26.91,17.76-12,41.47-.8,44.26,20.76a55.1,55.1,0,0,1,.3,7.16c0,78.9.46,157.8-.15,236.69-.43,56-26.24,97.13-76.91,121.45-11,5.26-23.55,7.12-35.38,10.55-1.63.47-3.26.91-4.88,1.36Z" transform="translate(-66.76 -66.7)"/><path class="cls-1" d="M649.82,66.7c32.54,1.59,58.86,17.23,73.68,48.64,14.74,31.22,11.32,62.13-11.31,88.37-31.07,36-63.81,70.6-95.89,105.75Q516.54,418.75,416.56,527.84a59.48,59.48,0,0,1-18.72,13.49c-31,14.1-62.29,27.56-93.54,41.09-19,8.22-36.54,4.65-49-10.07-9.82-11.65-11.38-25.2-6.8-39.25q16.75-51.36,34.31-102.44a39,39,0,0,1,8.07-13.17Q437.83,256.36,585,95.44C601.83,77,622.68,67.41,649.82,66.7Zm-235,378.08c2.71-2.91,5.06-5.41,7.38-7.94L587,256.39q39.57-43.32,79.09-86.66c11.23-12.35,10.93-27.67-.5-38.26S639,122,627.43,134.08c-1.8,1.88-3.53,3.83-5.29,5.76Q501,272.41,380,405c-1.26,1.37-2.39,2.85-3.79,4.53ZM336.44,451,315,515.15,376.9,488Z" transform="translate(-66.76 -66.7)"/></svg>